<?xml version="1.0" standalone="no"?>
<!DOCTYPE svg PUBLIC "-//W3C//DTD SVG 20010904//EN"
 "http://www.w3.org/TR/2001/REC-SVG-20010904/DTD/svg10.dtd">
<svg version="1.0" xmlns="http://www.w3.org/2000/svg"
 width="512.000000pt" height="512.000000pt" viewBox="0 0 512.000000 512.000000"
 preserveAspectRatio="xMidYMid meet">
<metadata>
Created by potrace 1.14, written by Peter Selinger 2001-2017
</metadata>
<g transform="translate(0.000000,512.000000) scale(0.100000,-0.100000)"
fill="#000000" stroke="none">
<path d="M371 5104 c-160 -43 -301 -181 -351 -342 -20 -63 -20 -97 -20 -2196
0 -1426 4 -2146 11 -2176 40 -176 203 -339 379 -379 30 -7 740 -11 2170 -11
1739 0 2134 3 2175 14 180 47 323 190 370 367 13 46 15 370 15 2182 l0 2128
-25 76 c-32 93 -81 169 -149 229 -56 50 -147 97 -216 113 -30 7 -747 10 -2175
10 -1829 0 -2138 -2 -2184 -15z m2444 -1071 c22 -8 108 -18 190 -23 83 -5 169
-14 193 -20 99 -24 296 -144 370 -225 42 -46 52 -66 75 -147 42 -149 57 -252
57 -381 0 -171 -13 -236 -61 -300 -22 -29 -42 -63 -45 -77 -18 -81 -30 -98
-148 -217 -117 -117 -126 -124 -236 -177 -99 -47 -125 -55 -191 -59 -42 -3
-104 -13 -137 -22 -56 -16 -64 -16 -116 -1 -71 21 -123 52 -132 78 -11 37 23
55 160 84 71 14 134 31 140 35 6 5 38 27 71 48 165 105 287 302 310 501 5 39
2 67 -8 95 -9 22 -21 81 -27 130 -19 147 -35 193 -88 249 -55 57 -243 220
-269 234 -39 21 -209 52 -279 52 -93 0 -219 -38 -264 -80 l-30 -28 0 -142 c0
-85 4 -150 11 -162 9 -16 8 -35 0 -74 -10 -41 -9 -62 0 -94 11 -36 10 -48 -10
-105 l-23 -63 22 -109 c20 -96 22 -138 22 -378 -1 -160 -5 -284 -11 -305 -16
-51 -13 -114 10 -210 15 -64 22 -143 28 -315 9 -222 21 -325 44 -354 20 -24
125 -91 215 -136 78 -39 97 -45 154 -45 61 0 67 -2 115 -42 29 -24 54 -50 58
-58 7 -18 -22 -58 -64 -87 -64 -43 -218 -56 -358 -29 -53 10 -84 11 -117 3
-38 -9 -59 -6 -141 17 -106 29 -106 29 -312 -14 -105 -23 -311 -27 -408 -9
-99 18 -165 63 -165 111 0 10 16 35 35 57 l35 38 113 5 c162 6 194 24 317 173
l41 50 -6 110 c-12 199 -9 265 13 349 27 97 27 129 3 231 -31 135 -33 159 -13
212 16 42 17 58 9 130 -8 60 -7 120 3 222 12 134 12 141 -8 173 -15 25 -23 66
-32 164 -11 118 -11 137 5 183 15 47 15 56 0 138 -25 132 -82 299 -113 333
-23 24 -44 31 -137 50 -171 32 -265 90 -265 161 0 26 3 29 33 29 19 0 60 9 93
21 55 18 66 19 159 8 83 -9 129 -9 272 5 138 14 180 15 212 5 31 -9 50 -9 88
1 115 30 458 32 538 3z"/>
</g>
</svg>
