<?xml version="1.0" standalone="no"?>
<!DOCTYPE svg PUBLIC "-//W3C//DTD SVG 20010904//EN"
 "http://www.w3.org/TR/2001/REC-SVG-20010904/DTD/svg10.dtd">
<svg version="1.0" xmlns="http://www.w3.org/2000/svg"
 width="512.000000pt" height="512.000000pt" viewBox="0 0 512.000000 512.000000"
 preserveAspectRatio="xMidYMid meet">
<metadata>
Created by potrace 1.14, written by Peter Selinger 2001-2017
</metadata>
<g transform="translate(0.000000,512.000000) scale(0.100000,-0.100000)"
fill="#000000" stroke="none">
<path d="M505 5010 c-201 -42 -358 -199 -395 -395 -8 -44 -10 -609 -8 -2090
l3 -2030 23 -59 c58 -152 169 -261 322 -312 53 -18 132 -19 2110 -19 l2055 0
65 24 c153 56 248 150 311 306 l24 60 3 2015 c2 1377 -1 2037 -8 2085 -27 180
-151 331 -326 397 l-59 23 -2040 1 c-1122 1 -2058 -2 -2080 -6z m2300 -1026
c33 -8 123 -19 200 -24 77 -5 158 -14 180 -21 98 -28 272 -134 344 -208 40
-41 51 -62 74 -137 49 -160 60 -231 61 -379 1 -175 -13 -238 -63 -302 -24 -30
-41 -64 -46 -91 -8 -52 -51 -107 -168 -219 -70 -67 -106 -92 -194 -137 -94
-47 -119 -55 -188 -61 -44 -4 -104 -14 -133 -22 -63 -18 -132 -6 -199 32 -46
28 -60 54 -44 84 13 23 14 24 156 54 206 45 335 152 436 362 54 112 68 203 46
292 -9 38 -21 102 -27 143 -24 164 -30 174 -209 328 l-127 109 -93 22 c-127
29 -226 28 -322 -4 -44 -15 -86 -36 -100 -51 -23 -25 -24 -31 -22 -157 0 -73
3 -188 6 -257 4 -96 2 -137 -10 -177 -15 -47 -15 -58 2 -140 14 -70 18 -142
19 -358 1 -148 -2 -283 -7 -300 -13 -46 -9 -144 9 -205 10 -36 18 -132 24
-275 10 -244 23 -333 52 -370 23 -30 190 -130 260 -157 26 -10 71 -18 100 -18
46 0 56 -4 104 -46 30 -25 54 -52 54 -59 0 -27 -61 -83 -108 -100 -70 -25
-202 -30 -298 -12 -61 12 -90 13 -120 5 -33 -9 -54 -7 -120 10 -103 28 -131
28 -300 -4 -122 -23 -156 -26 -279 -21 -85 3 -160 11 -191 21 -105 33 -136
102 -71 163 30 28 39 31 127 37 168 12 204 30 296 141 l56 70 -6 180 c-6 164
-5 186 14 250 25 87 25 159 0 255 -24 91 -25 139 -4 188 13 31 14 49 4 118 -9
60 -9 105 -1 170 15 121 14 180 -4 214 -9 17 -21 84 -29 151 -11 106 -11 128
3 176 12 46 13 66 2 130 -15 92 -52 218 -85 288 -24 52 -25 53 -83 64 -234 46
-323 94 -323 177 0 30 3 34 28 34 15 0 56 9 92 21 59 18 74 19 161 9 76 -8
128 -8 258 5 120 11 173 13 196 5 23 -8 52 -7 111 4 114 21 422 21 499 0z"/>
</g>
</svg>
